<?xml version="1.0" encoding="UTF-8" standalone="no"?>
<!-- Created with Inkscape (http://www.inkscape.org/) -->

<svg
   width="512"
   height="512"
   viewBox="0 0 512 512"
   version="1.1"
   id="svg1"
   xml:space="preserve"
   inkscape:version="1.4.3 (0d15f75, 2025-12-25)"
   sodipodi:docname="icon"
   xmlns:inkscape="http://www.inkscape.org/namespaces/inkscape"
   xmlns:sodipodi="http://sodipodi.sourceforge.net/DTD/sodipodi-0.dtd"
   xmlns="http://www.w3.org/2000/svg"
   xmlns:svg="http://www.w3.org/2000/svg"><sodipodi:namedview
     id="namedview1"
     pagecolor="#505050"
     bordercolor="#ffffff"
     borderopacity="1"
     inkscape:showpageshadow="0"
     inkscape:pageopacity="0"
     inkscape:pagecheckerboard="1"
     inkscape:deskcolor="#505050"
     inkscape:document-units="px"
     showguides="true"
     inkscape:zoom="1.1297136"
     inkscape:cx="190.31373"
     inkscape:cy="238.99863"
     inkscape:window-width="1486"
     inkscape:window-height="935"
     inkscape:window-x="193"
     inkscape:window-y="87"
     inkscape:window-maximized="0"
     inkscape:current-layer="layer2" /><defs
     id="defs1" /><g
     inkscape:groupmode="layer"
     id="layer2"
     inkscape:label="Layer 2"><circle
       style="fill:#f3efe1;fill-opacity:1;stroke:none;stroke-width:1.06937"
       id="path88"
       cx="256"
       cy="256"
       r="256" /></g><g
     inkscape:label="Layer 1"
     inkscape:groupmode="layer"
     id="layer1"
     sodipodi:insensitive="true"><path
       style="display:none;fill:#f3efe1;fill-opacity:1;stroke-width:0.375"
       d="M -1.866446e-6,256 V 1.5028448e-6 H 256 512 V 256 512 H 256 -1.866446e-6 Z M 261.72922,434.7344 c 31.21649,-8.13086 55.55962,-84.70368 63.76526,-200.57757 3.27571,-46.25707 -8.6759,-65.25969 -46.02385,-73.17624 -2.87135,-0.60863 -5.30212,-1.17849 -5.40172,-1.26635 C 273.1886,158.93768 285.96016,138.23309 296.56174,123.25 307.58278,107.67411 309.5,103.77931 309.5,96.966089 309.5,80.5675 286.22445,70.249235 274.86265,81.611038 268.67221,87.801471 259.64642,106.24692 255.52754,121.125 254.86538,123.51683 254,124.31949 254,122.54183 c 0,-4.9674 -10.89715,-31.457417 -15.76236,-38.316937 -8.47069,-11.94291 -27.98423,-8.834119 -35.03736,5.581962 -4.21495,8.615059 -2.4532,13.502605 14.12749,39.193145 7.98605,12.37378 18.17223,29.72168 18.17223,30.94879 0,0.2279 -1.94619,0.80087 -4.32486,1.27327 -22.40396,4.44938 -39.26787,18.67155 -43.95261,37.06741 -3.82661,15.02618 -0.34034,61.62016 8.80737,117.71053 13.35796,81.90611 37.76254,126.01101 65.69932,118.7344 z"
       id="path87" /><path
       style="fill:#ec8f45;stroke-width:0.375"
       d="m 250.75,426.62432 c -12.90071,-4.61269 -28.22724,-30.90334 -36.26628,-62.21002 -0.54172,-2.10963 -1.12124,-4.19088 -1.28783,-4.625 -0.27041,-0.70468 0.9051,-0.7893 10.96432,-0.7893 h 11.26721 l 1.03629,-1.31743 c 1.37468,-1.74763 1.30886,-3.45545 -0.19099,-4.9553 L 235.04545,351.5 h -11.98903 c -10.98812,0 -12.01022,-0.0731 -12.24281,-0.875 -2.8962,-9.98593 -8.93459,-45.55677 -12.59955,-74.22123 l -0.29999,-2.34623 18.66797,0.28636 18.66796,0.28637 1.375,-1.10143 c 1.06236,-0.85099 1.375,-1.53029 1.375,-2.98764 0,-3.61049 0.5274,-3.51481 -21.3768,-3.87811 l -19.53378,-0.32398 -0.29021,-2.04455 c -4.48622,-31.60577 -4.08429,-61.63538 0.95966,-71.7007 10.52837,-21.00964 46.00958,-31.46055 80.70275,-23.77081 26.83159,5.94722 39.63135,20.09171 39.7508,43.92695 l 0.0376,7.5 -19.35925,0.25 c -17.34742,0.22402 -19.46339,0.3392 -20.36131,1.10838 -1.56156,1.33766 -1.82689,3.25469 -0.66577,4.81015 l 0.99393,1.33147 19.63022,0.13086 19.63022,0.13085 -0.33392,4.86915 c -1.44855,21.12231 -5.92851,61.11615 -7.61644,67.99414 C 309.89243,301.99658 309.86011,302 299.53295,302 288.03627,302 287,302.30427 287,305.67995 c 0,3.39042 1.36715,3.82005 12.15598,3.82005 h 9.70144 l -1.89874,11.125 c -4.21429,24.69215 -9.40706,45.69742 -15.07163,60.96624 l -1.98154,5.34125 -7.99804,0.15875 C 273.01111,387.26783 272,387.67471 272,391.07812 c 0,3.14395 1.68153,3.92188 8.47727,3.92188 3.3125,0 6.02273,0.14833 6.02273,0.32963 0,0.18129 -1.36832,2.93754 -3.04071,6.125 -10.69414,20.38226 -21.92613,29.02525 -32.70929,25.16969 z m 3.0786,-68.90746 c 2.51822,-2.51822 0.81707,-5.70552 -3.25396,-6.0967 -4.24109,-0.40751 -6.66402,3.37357 -3.98748,6.22261 1.60705,1.71064 5.47209,1.64343 7.24144,-0.12591 z m 23.94412,-49.44413 C 280.43842,305.60704 278.57034,302 274.5241,302 c -3.92858,0 -5.85326,2.44624 -4.29523,5.45914 1.27808,2.47153 5.43734,2.9201 7.54385,0.81359 z m -24.8777,-34.09311 c 1.14766,-0.30743 2.60498,-2.47632 2.60498,-3.87691 0,-3.15856 -6.47366,-4.9293 -8.56754,-2.34347 -2.92788,3.61578 0.8751,7.58319 5.96256,6.22038 z M 268.5,227 c 1.86407,-1.86407 1.11324,-4.91756 -1.47256,-5.98863 -4.31974,-1.7893 -8.2819,2.26128 -5.74909,5.87738 1.07767,1.53859 5.72275,1.61015 7.22165,0.11125 z"
       id="path86" /><path
       style="fill:#9bc349;stroke-width:0.375"
       d="m 242.29916,155.9297 c -2.38804,-5.50636 -13.64071,-24.52395 -20.87675,-35.28279 -6.3055,-9.37528 -11.64311,-18.89963 -12.1722,-21.719908 -1.39501,-7.436044 10.23942,-16.488155 17.92971,-13.950128 8.27074,2.729591 23.37623,44.210976 25.15179,69.069656 l 0.30689,4.29653 -3.14265,0.32847 c -5.90173,0.61685 -5.7082,0.69058 -7.19679,-2.74183 z m 19.65411,2.71973 c -1.26509,-0.19585 -1.31263,-0.34337 -1.94826,-6.0462 -0.35834,-3.215 -0.93154,-7.05008 -1.27379,-8.52239 -1.74107,-7.48982 11.22252,-43.3936 19.8415,-54.95275 8.4719,-11.361893 27.86486,0.863573 21.81504,13.75236 -1.14408,2.43741 -6.78615,10.97776 -17.09038,25.86955 -7.66788,11.08172 -10.76582,16.11317 -14.70018,23.875 -3.424,6.75499 -3.20536,6.55674 -6.64393,6.02443 z"
       id="path85" /><path
       style="fill:#513d35;stroke-width:0.375"
       d="M 250.13227,434.7292 C 226.76797,428.43692 207.45488,386.05378 196.0299,316 c -9.14771,-56.09037 -12.63398,-102.68435 -8.80737,-117.71053 4.68474,-18.39586 21.54865,-32.61803 43.95261,-37.06741 2.37867,-0.4724 4.32486,-1.04537 4.32486,-1.27327 C 235.5,158.72168 225.31382,141.37378 217.32777,129 200.74708,103.30946 198.98533,98.421914 203.20028,89.806855 210.25341,75.390774 229.76695,72.281983 238.23764,84.224893 243.10285,91.084413 254,117.57443 254,122.54183 c 0,1.77766 0.86538,0.975 1.52754,-1.41683 4.11888,-14.87808 13.14467,-33.323529 19.33511,-39.513962 C 286.22445,70.249235 309.5,80.5675 309.5,96.966089 c 0,6.813221 -1.91722,10.708021 -12.93826,26.283911 -10.60158,14.98309 -23.37314,35.68768 -22.49283,36.46424 0.0996,0.0879 2.53037,0.65772 5.40172,1.26635 37.34795,7.91655 49.29956,26.91917 46.02385,73.17624 -9.28012,131.04684 -39.07523,210.3449 -75.36221,200.57237 z m 13.1205,-8.98274 c 3.93026,-1.9623 10.71784,-8.69104 14.37105,-14.24646 C 280.18883,407.59938 286.5,396.10188 286.5,395.32963 286.5,395.14833 283.78977,395 280.47727,395 273.68153,395 272,394.22207 272,391.07812 c 0,-3.40341 1.01111,-3.81029 9.90747,-3.98688 l 7.99804,-0.15875 1.98154,-5.34125 c 5.66457,-15.26882 10.85734,-36.27409 15.07163,-60.96624 l 1.89874,-11.125 h -9.70144 C 288.36715,309.5 287,309.07037 287,305.67995 287,302.30427 288.03627,302 299.53295,302 c 10.32716,0 10.35948,-0.003 10.63473,-1.125 1.68793,-6.87799 6.16789,-46.87183 7.61644,-67.99414 l 0.33392,-4.86915 -19.63022,-0.13085 -19.63022,-0.13086 -0.99393,-1.33147 c -1.16112,-1.55546 -0.89579,-3.47249 0.66577,-4.81015 0.89792,-0.76918 3.01389,-0.88436 20.36131,-1.10838 l 19.35925,-0.25 -0.0376,-7.5 c -0.16794,-33.51141 -35.11955,-53.20003 -79.9327,-45.02695 -37.74401,6.88381 -47.64684,22.91786 -43.86713,71.02695 0.74147,9.43764 1.97617,22.65291 2.38662,25.54456 l 0.29021,2.04455 19.53378,0.32398 c 21.9042,0.3633 21.3768,0.26762 21.3768,3.87811 0,1.45735 -0.31264,2.13665 -1.375,2.98764 l -1.375,1.10143 -18.66796,-0.28637 -18.66797,-0.28636 0.29999,2.34623 c 3.66496,28.66446 9.70335,64.2353 12.59955,74.22123 0.23259,0.80195 1.25469,0.875 12.24281,0.875 h 11.98903 l 1.22727,1.22727 c 1.49985,1.49985 1.56567,3.20767 0.19099,4.9553 L 235.42742,359 h -11.26721 c -10.05922,0 -11.23473,0.0846 -10.96432,0.7893 0.16659,0.43412 0.74611,2.51537 1.28783,4.625 11.22277,43.70516 31.92595,69.74157 48.76905,61.33216 z m -16.66561,-67.90369 c -2.67654,-2.84904 -0.25361,-6.63012 3.98748,-6.22261 2.85175,0.27402 3.76963,0.97621 4.22007,3.22839 0.72303,3.61517 -5.49361,5.88308 -8.20755,2.99422 z m 25.02732,-48.67742 c -1.07832,-0.43385 -2.15915,-3.06329 -1.81796,-4.4227 1.07489,-4.28271 9.20348,-3.45488 9.20348,0.9373 0,2.84782 -4.12816,4.796 -7.38552,3.4854 z m -24.38721,-35.89262 c -1.4809,-1.4809 -1.60385,-3.69689 -0.29481,-5.31349 2.09388,-2.58583 8.56754,-0.81509 8.56754,2.34347 0,3.75562 -5.50924,5.73351 -8.27273,2.97002 z m 14.05108,-46.38398 c -2.53281,-3.6161 1.42935,-7.66668 5.74909,-5.87738 2.5858,1.07107 3.33663,4.12456 1.47256,5.98863 -1.4989,1.4989 -6.14398,1.42734 -7.22165,-0.11125 z m -11.7824,-68.21722 3.14265,-0.32847 -0.30689,-4.29653 c -1.77556,-24.85868 -16.88105,-66.340065 -25.15179,-69.069656 -7.69029,-2.538027 -19.32472,6.514084 -17.92971,13.950128 0.52909,2.820278 5.8667,12.344628 12.1722,21.719908 7.23604,10.75884 18.48871,29.77643 20.87675,35.28279 1.48859,3.43241 1.29506,3.35868 7.19679,2.74183 z M 268.5972,152.625 c 3.93436,-7.76183 7.0323,-12.79328 14.70018,-23.875 10.30423,-14.89179 15.9463,-23.43214 17.09038,-25.86955 6.04982,-12.888787 -13.34314,-25.114253 -21.81504,-13.75236 -8.61898,11.55915 -21.58257,47.46293 -19.8415,54.95275 0.34225,1.47231 0.91545,5.30739 1.27379,8.52239 0.63563,5.70283 0.68317,5.85035 1.94826,6.0462 3.43857,0.53231 3.21993,0.73056 6.64393,-6.02443 z"
       id="path84" /></g></svg>
